<svg width="520" height="182" viewBox="0 0 520 182" fill="none" xmlns="http://www.w3.org/2000/svg">
<path d="M173.096 114.163C179.93 114.163 183.387 110.671 184.89 108.292H185.567C185.868 110.819 187.669 113.197 191.201 113.197H197.887V105.766H196.159C194.957 105.766 194.357 105.096 194.357 104.057V74.2562H185.491V79.0135H184.814C183.088 76.6369 179.481 73.2906 172.87 73.2906C162.351 73.2906 154.539 81.9125 154.539 93.7268C154.539 105.543 162.501 114.163 173.096 114.163ZM174.674 105.693C168.437 105.693 163.555 101.158 163.555 93.8017C163.555 86.5928 168.287 81.6898 174.598 81.6898C180.607 81.6898 185.642 86.0726 185.642 93.8017C185.642 100.415 181.357 105.693 174.674 105.693ZM203.121 128.294H211.986V108.294H212.661C214.315 110.673 217.845 114.163 224.834 114.163C235.351 114.163 243.015 105.395 243.015 93.7289C243.015 81.9874 234.826 73.2926 224.232 73.2926C217.471 73.2926 214.164 76.9345 212.588 78.9407H211.911V74.2583H203.121V128.298M222.955 105.918C216.869 105.918 211.836 101.46 211.836 93.7309C211.836 87.1173 216.118 81.5441 222.804 81.5441C229.041 81.5441 233.923 86.3743 233.923 93.7309C233.923 100.94 229.191 105.918 222.955 105.918ZM247.59 128.294H256.453V108.294H257.13C258.782 110.673 262.314 114.163 269.3 114.163C279.819 114.163 286.752 105.395 286.752 93.7289C286.752 81.9874 279.293 73.2926 268.701 73.2926C261.937 73.2926 258.633 76.9345 257.055 78.9407H256.378V74.2583H247.59V128.298M267.422 105.918C261.338 105.918 256.303 101.46 256.303 93.7309C256.303 87.1173 260.585 81.5441 267.273 81.5441C273.508 81.5441 278.392 86.3743 278.392 93.7309C278.392 100.94 273.658 105.918 267.422 105.918ZM298.471 114.101H311.017L318.154 83.5586H318.604L325.741 114.101H338.212L348.2 75.1635H339.265L332.128 105.776H331.451L324.313 75.1635H312.52L305.307 105.776H304.63L297.568 75.1635H288.102L298.471 114.101ZM352.691 114.101H361.555V94.8547C361.555 87.4981 365.012 82.9655 371.472 82.9655H375.378V74.1958H372.448C367.416 74.1958 363.585 77.615 362.082 80.8844H361.48V75.1615H352.691V114.101ZM419.373 114.101H426.285V106.297H419.448C416.744 106.297 415.615 105.11 415.615 102.359V82.8906H426.734V75.1615H415.615V64.2379H407.201V75.1635H399.84V82.8906H406.676V102.434C406.676 110.683 411.709 114.101 419.373 114.101ZM450.067 114.163C458.257 114.163 465.468 110.151 468.024 102.051L459.908 100.118C458.481 104.428 454.349 106.657 449.994 106.657C443.531 106.657 439.249 102.494 439.174 95.9556H469V93.5041C469 81.9125 461.712 73.2926 449.693 73.2926C439.098 73.2926 430.009 81.54 430.009 93.8017C430.009 105.691 438.047 114.163 450.067 114.163ZM439.249 89.5646C439.776 84.8843 444.058 80.9469 449.693 80.9469C455.101 80.9469 459.534 84.2891 459.984 89.5667L439.249 89.5646Z" fill="#19191D"/>
<path fill-rule="evenodd" clip-rule="evenodd" d="M395.898 114.101H387.032V82.8906H380.121V75.1614H395.898V114.101Z" fill="#19191D"/>
<path d="M390.805 69.759C394.036 69.759 396.439 67.3803 396.439 64.2587C396.439 61.212 394.036 58.8354 390.805 58.8354C387.576 58.8354 385.17 61.212 385.17 64.2587C385.17 67.3803 387.576 69.759 390.805 69.759Z" fill="#19191D"/>
<path d="M128.403 104.553V121.738H85.0461C72.4141 121.738 61.3873 114.827 55.4851 104.553C52.8758 100.002 51.342 94.9201 51 89.6915V85.0466C51.1539 82.6609 51.5581 80.2978 52.2059 77.9959C56.2564 63.5698 69.4275 53 85.0482 53C100.669 53 113.838 63.5698 117.886 77.9938H99.348C96.3049 73.2926 91.0381 70.1835 85.0482 70.1835C79.0562 70.1835 73.7894 73.2926 70.7463 77.9959C69.8071 79.443 69.0926 81.023 68.6271 82.6825C68.1996 84.2082 67.9837 85.785 67.9854 87.3691C67.9854 92.295 70.042 96.7339 73.34 99.8659C76.488 102.876 80.6839 104.555 85.0482 104.553H128.403Z" fill="#FD366E"/>
<path d="M128.403 82.6825V99.866H96.7563C98.4535 98.2535 99.8035 96.3141 100.724 94.1657C101.645 92.0173 102.116 89.7048 102.111 87.3691C102.111 85.7437 101.887 84.1725 101.469 82.6825H128.403Z" fill="#FD366E"/>
</svg>
