<svg width="520" height="182" viewBox="0 0 520 182" fill="none" xmlns="http://www.w3.org/2000/svg">
<path d="M85.9361 106.379V117.262L60 91.1972L65.4006 85.7558L85.9361 106.379ZM96.7372 117.329H85.9361L111.872 143.462L117.273 138.02L96.7372 117.329ZM158.277 96.6387L163.678 91.1972L111.872 39L106.472 44.4414L127.007 65.1322H114.606L100.271 50.7561L94.8704 56.1975L103.738 65.1322H97.5373V105.64H137.742V99.393L146.609 108.328L152.01 102.886L137.742 88.5101V76.015L158.277 96.6387ZM88.603 62.3779L83.2025 67.8193L89.0031 73.6638L94.4037 68.2224L88.603 62.3779ZM134.675 108.731L129.274 114.172L135.075 120.017L140.475 114.575L134.675 108.731ZM77.0018 74.0669L71.6012 79.5083L85.9361 93.9515V83.0687L77.0018 74.0669ZM119.94 117.329H109.139L123.473 131.773L128.874 126.331L119.94 117.329Z" fill="#FF6161"/>
<path d="M452.975 117.262C449.508 117.262 446.775 116.322 444.774 114.374C442.774 112.425 441.841 109.806 441.841 106.447V85.5543H435.573V77.7616H441.841L442.974 67.3491H450.375V77.7616H459.976V85.6215H450.375V105.305C450.375 106.379 450.775 107.454 451.508 108.193C451.908 108.596 452.308 108.932 452.842 109.134C453.375 109.335 453.909 109.47 454.442 109.402H460.043V117.262H452.975ZM415.305 118.001C410.637 118.001 406.904 116.859 404.103 114.642C401.303 112.425 399.37 109.268 398.636 105.708H407.904C408.304 107.051 409.237 108.193 410.437 108.932C411.904 109.806 413.638 110.209 415.305 110.141C420.238 110.141 422.705 108.731 422.705 106.044C422.705 104.7 421.905 103.692 420.372 102.953C418.572 102.147 416.705 101.61 414.771 101.274C412.571 100.871 410.371 100.266 408.104 99.6616C405.904 98.9899 403.903 97.6463 402.437 95.8325C400.903 93.9515 400.103 91.5331 400.103 88.5101C400.103 86.8978 400.436 85.3528 401.103 83.942C401.77 82.5313 402.77 81.2549 404.037 80.2472C406.637 78.0304 410.304 76.9555 414.905 76.9555C419.572 76.9555 423.239 78.0304 425.972 80.1129C428.706 82.1954 430.573 85.2184 431.24 88.5773H421.972C420.972 86.0917 418.638 84.8153 414.971 84.8153C411.037 84.8153 409.037 86.0917 409.037 88.5773C409.037 89.1819 409.171 89.7193 409.504 90.1896C409.771 90.6598 410.237 91.0629 410.704 91.3316C411.971 92.0705 413.371 92.608 414.838 92.8095C416.705 93.1454 418.505 93.5484 420.305 94.0859C422.172 94.6233 423.972 95.2951 425.772 96.034C427.506 96.8402 428.973 98.1166 429.973 99.7288C431.173 101.61 431.706 103.827 431.64 106.044C431.706 107.723 431.306 109.335 430.573 110.813C429.839 112.291 428.773 113.635 427.439 114.575C424.706 116.859 420.638 118.001 415.305 118.001ZM387.768 80.919C384.901 78.3663 380.901 77.0227 375.767 77.0227C371.7 77.0227 368.233 78.1647 365.433 80.3816C362.699 82.5313 360.765 85.5543 359.965 88.9804H368.7C369.166 87.704 369.966 86.5619 371.1 85.823C372.433 84.8825 374.1 84.4123 375.7 84.4794C378.101 84.4794 379.967 85.084 381.368 86.3604C382.101 87.0322 382.634 87.8383 382.968 88.7116C383.301 89.5849 383.501 90.5926 383.435 91.5331V93.4141H373.433C368.833 93.4141 365.233 94.5561 362.566 96.9073C361.299 97.9822 360.299 99.3257 359.632 100.871C358.965 102.416 358.632 104.028 358.632 105.708C358.565 107.387 358.899 108.999 359.499 110.544C360.099 112.09 361.099 113.433 362.299 114.575C364.699 116.926 367.966 118.068 371.967 118.068C374.434 118.136 376.9 117.531 379.101 116.389C380.901 115.516 382.368 114.172 383.435 112.493H383.768L384.501 117.397H391.902V91.6675C392.035 87.0994 390.569 83.539 387.768 80.919ZM383.568 102.013C383.635 103.155 383.434 104.364 382.968 105.439C382.501 106.514 381.834 107.521 380.968 108.26C379.234 109.806 376.9 110.544 373.9 110.544C371.767 110.544 370.1 110.074 368.966 109.067C368.433 108.596 367.966 108.059 367.699 107.387C367.433 106.715 367.233 106.044 367.299 105.305C367.299 101.811 369.566 100.065 373.967 100.065H383.568V102.013ZM336.496 118.068C330.896 118.068 326.362 116.255 323.028 112.627C319.694 108.999 317.961 103.961 317.961 97.5791C317.961 91.1972 319.628 86.1589 322.961 82.5313C326.295 78.9037 330.829 77.0899 336.43 77.0899C341.03 77.0899 344.83 78.2991 347.831 80.7846C350.764 83.1359 352.898 86.4276 353.831 90.1224H345.364C344.564 88.5101 343.23 87.0994 341.697 86.2261C340.097 85.2856 338.296 84.8825 336.496 84.9497C335.096 84.8825 333.763 85.1512 332.496 85.7558C331.229 86.3604 330.095 87.1666 329.229 88.2414C327.362 90.4583 326.495 93.5485 326.495 97.5791C326.495 101.61 327.429 104.7 329.229 106.917C330.095 107.992 331.229 108.865 332.496 109.47C333.763 110.074 335.163 110.343 336.496 110.276C338.296 110.343 340.097 109.873 341.697 108.999C343.297 108.059 344.564 106.715 345.364 105.103H353.831C352.898 108.798 350.764 112.09 347.831 114.441C344.897 116.859 341.097 118.068 336.496 118.068ZM286.491 132.243L292.425 117.329L276.556 77.8288H285.824L296.559 105.775H296.892L307.626 77.8288H316.894L295.425 132.31H286.491V132.243ZM268.489 80.919C265.622 78.3663 261.622 77.0227 256.488 77.0227C252.421 77.0227 248.954 78.0975 246.153 80.3816C243.42 82.5313 241.486 85.5543 240.686 88.9804H249.42C249.887 87.704 250.687 86.5619 251.82 85.823C253.154 84.8825 254.821 84.4123 256.421 84.4794C258.821 84.4794 260.755 85.084 262.088 86.3604C262.822 87.0322 263.355 87.8383 263.688 88.7116C264.022 89.5849 264.222 90.5926 264.155 91.5331V93.4141H254.154C249.554 93.4141 245.953 94.5561 243.286 96.9073C242.019 97.9822 241.019 99.3257 240.353 100.871C239.686 102.416 239.353 104.028 239.353 105.708C239.286 107.387 239.619 108.999 240.219 110.544C240.819 112.09 241.819 113.433 243.02 114.575C245.42 116.926 248.687 118.068 252.687 118.068C255.154 118.136 257.621 117.531 259.821 116.389C261.622 115.516 263.088 114.172 264.155 112.493H264.488L265.222 117.397H272.623V91.6675C272.756 87.0994 271.356 83.539 268.489 80.919ZM264.288 102.013C264.355 103.155 264.155 104.364 263.688 105.439C263.222 106.514 262.555 107.521 261.688 108.26C259.955 109.806 257.621 110.544 254.621 110.544C252.487 110.544 250.82 110.074 249.687 109.067C249.154 108.596 248.687 108.059 248.42 107.387C248.153 106.715 247.953 106.044 248.02 105.305C248.02 101.811 250.287 100.132 254.687 100.065H264.288V102.013ZM220.484 97.5791C221.817 97.2432 223.084 96.7058 224.284 96.1012C225.684 95.2951 227.018 94.4218 228.218 93.3469C229.685 92.0034 230.818 90.3239 231.485 88.4429C232.352 86.2932 232.752 83.942 232.685 81.5908C232.685 76.6196 231.085 72.6561 227.951 69.6331C224.818 66.6101 220.684 65.1322 215.683 65.1322H194.214V117.329H203.482V97.9822H210.483L223.818 117.329H234.152L220.484 97.5791ZM203.482 89.7193V73.3279H214.95C217.55 73.3279 219.617 74.0669 221.151 75.4776C222.684 76.8883 223.417 78.9037 223.417 81.5236C223.417 84.0764 222.617 86.0917 221.084 87.5696C219.417 89.0475 217.217 89.8537 214.95 89.7193H203.482Z" fill="black"/>
</svg>
